<svg width="958" height="762" viewBox="0 0 958 762" fill="none" xmlns="http://www.w3.org/2000/svg">
<path d="M0.5 761.269C11.4311 713.783 29.0428 668.904 52.2472 627.736C80.844 576.956 117.973 531.8 161.651 494.203C146.577 559.747 118.798 620.284 81.0909 673.054C57.7784 705.66 30.709 735.273 0.507714 761.261H0.5V761.269ZM876.763 673.201C838.978 620.338 811.114 559.647 796.041 493.987C710.466 420.491 599.805 376.167 478.954 376.167C358.102 376.167 247.256 420.575 161.651 494.188C170.106 457.509 174.572 419.279 174.572 379.993C174.572 337.244 169.28 295.721 159.329 256.103C117.757 219.894 82.2017 176.728 54.4227 128.417C31.7427 88.9844 14.216 46.1037 2.84513 0.723699C32.0976 26.2099 58.3801 55.1365 81.0909 86.8786C116.939 137.049 143.792 194.285 159.337 256.095C245.266 330.949 356.906 376.16 478.954 376.16C601.001 376.16 712.48 331.034 798.355 256.311C813.891 194.339 840.83 137.018 876.763 86.7397C899.497 54.9668 925.833 25.9862 955.17 0.5C943.776 45.9648 926.242 88.8996 903.539 128.409C875.675 176.836 840.043 220.056 798.363 256.319C788.442 295.883 783.181 337.298 783.181 379.986C783.181 419.21 787.624 457.393 796.048 493.987C839.804 531.607 877.04 576.879 905.699 627.744C928.957 668.997 946.561 713.929 957.5 761.5C927.237 735.489 900.114 705.845 876.778 673.208H876.763V673.201Z" stroke="#1534DC" stroke-miterlimit="10" stroke-linejoin="round"/>
</svg>
